RobotoExtremo-opszmax-wdthmin-wght900-XTRAmin.ufo
<glyph name="exclam" format="2">
  <advance width="520"/>
  <unicode hex="0021"/>
  <outline>
    <contour>
      <point x="-42.0" y="251.0" type="qcurve" smooth="yes"/>
      <point x="-42.0" y="143.0"/>
      <point x="113.0" y="-12.0"/>
      <point x="260.0" y="-12.0" type="qcurve" smooth="yes"/>
      <point x="407.0" y="-12.0"/>
      <point x="562.0" y="143.0"/>
      <point x="562.0" y="251.0" type="qcurve" smooth="yes"/>
      <point x="562.0" y="360.0"/>
      <point x="405.0" y="515.0"/>
      <point x="256.0" y="515.0" type="qcurve" smooth="yes"/>
      <point x="113.0" y="515.0"/>
      <point x="-42.0" y="360.0"/>
    </contour>
    <contour>
      <point x="11.0" y="522.0" type="line"/>
      <point x="508.0" y="522.0" type="line"/>
      <point x="516.0" y="1456.0" type="line"/>
      <point x="4.0" y="1456.0" type="line"/>
    </contour>
  </outline>
</glyph>
<glyph name="numbersign" format="2">
  <advance width="1119"/>
  <unicode hex="0023"/>
  <outline>
    <contour>
      <point x="76.0" y="-13.0" type="line"/>
      <point x="383.0" y="-13.0" type="line"/>
      <point x="641.0" y="1469.0" type="line"/>
      <point x="336.0" y="1469.0" type="line"/>
    </contour>
    <contour>
      <point x="483.0" y="-13.0" type="line"/>
      <point x="789.0" y="-13.0" type="line"/>
      <point x="1048.0" y="1469.0" type="line"/>
      <point x="742.0" y="1469.0" type="line"/>
    </contour>
    <contour>
      <point x="26.0" y="359.0" type="line"/>
      <point x="1062.0" y="359.0" type="line"/>
      <point x="1062.0" y="594.0" type="line"/>
      <point x="26.0" y="594.0" type="line"/>
    </contour>
    <contour>
      <point x="57.0" y="861.0" type="line"/>
      <point x="1093.0" y="861.0" type="line"/>
      <point x="1093.0" y="1096.0" type="line"/>
      <point x="57.0" y="1096.0" type="line"/>
    </contour>
  </outline>
</glyph>
<glyph name="dollar" format="2">
  <advance width="868"/>
  <unicode hex="0024"/>
  <outline>
    <contour>
      <point x="5.0" y="392.0" type="line" smooth="yes"/>
      <point x="5.0" y="162.0"/>
      <point x="251.0" y="-12.0"/>
      <point x="437.0" y="-12.0" type="qcurve" smooth="yes"/>
      <point x="623.0" y="-12.0"/>
      <point x="857.0" y="221.0"/>
      <point x="857.0" y="434.0" type="qcurve" smooth="yes"/>
      <point x="857.0" y="623.0"/>
      <point x="695.0" y="833.0"/>
      <point x="546.0" y="891.0" type="qcurve" smooth="yes"/>
      <point x="415.0" y="940.0"/>
      <point x="378.0" y="1012.0"/>
      <point x="378.0" y="1068.0" type="qcurve" smooth="yes"/>
      <point x="378.0" y="1131.0"/>
      <point x="397.0" y="1199.0"/>
      <point x="428.0" y="1199.0" type="qcurve" smooth="yes"/>
      <point x="464.0" y="1199.0"/>
      <point x="482.0" y="1118.0"/>
      <point x="482.0" y="1042.0" type="qcurve" smooth="yes"/>
      <point x="482.0" y="1016.0" type="line"/>
      <point x="831.0" y="1016.0" type="line"/>
      <point x="831.0" y="1076.0" type="line" smooth="yes"/>
      <point x="831.0" y="1294.0"/>
      <point x="603.0" y="1467.0"/>
      <point x="420.0" y="1467.0" type="qcurve" smooth="yes"/>
      <point x="239.0" y="1467.0"/>
      <point x="13.0" y="1252.0"/>
      <point x="13.0" y="1041.0" type="qcurve" smooth="yes"/>
      <point x="13.0" y="860.0"/>
      <point x="178.0" y="660.0"/>
      <point x="347.0" y="590.0" type="qcurve" smooth="yes"/>
      <point x="460.0" y="541.0"/>
      <point x="493.0" y="457.0"/>
      <point x="493.0" y="394.0" type="qcurve" smooth="yes"/>
      <point x="493.0" y="326.0"/>
      <point x="470.0" y="247.0"/>
      <point x="431.0" y="247.0" type="qcurve" smooth="yes"/>
      <point x="387.0" y="247.0"/>
      <point x="359.0" y="333.0"/>
      <point x="360.0" y="429.0" type="qcurve" smooth="yes"/>
      <point x="360.0" y="462.0" type="line"/>
      <point x="5.0" y="462.0" type="line"/>
    </contour>
    <contour>
      <point x="286.0" y="-151.0" type="line"/>
      <point x="589.0" y="-151.0" type="line"/>
      <point x="589.0" y="69.0" type="line"/>
      <point x="582.0" y="79.0" type="line"/>
      <point x="582.0" y="728.0" type="line"/>
      <point x="286.0" y="728.0" type="line"/>
    </contour>
    <contour>
      <point x="292.0" y="728.0" type="line"/>
      <point x="588.0" y="728.0" type="line"/>
      <point x="588.0" y="1606.0" type="line"/>
      <point x="285.0" y="1606.0" type="line"/>
      <point x="285.0" y="1382.0" type="line"/>
      <point x="292.0" y="1372.0" type="line"/>
    </contour>
  </outline>
</glyph>
<glyph name="zero" format="2">
  <advance width="1008"/>
  <unicode hex="0030"/>
  <outline>
    <contour>
      <point x="10.0" y="508.0" type="line" smooth="yes"/>
      <point x="10.0" y="231.0"/>
      <point x="273.0" y="-20.0"/>
      <point x="504.0" y="-20.0" type="qcurve" smooth="yes"/>
      <point x="703.0" y="-20.0"/>
      <point x="998.0" y="228.0"/>
      <point x="998.0" y="508.0" type="qcurve" smooth="yes"/>
      <point x="998.0" y="945.0" type="line" smooth="yes"/>
      <point x="998.0" y="1239.0"/>
      <point x="730.0" y="1476.0"/>
      <point x="504.0" y="1476.0" type="qcurve" smooth="yes"/>
      <point x="277.0" y="1476.0"/>
      <point x="10.0" y="1229.0"/>
      <point x="10.0" y="945.0" type="qcurve" smooth="yes"/>
    </contour>
    <contour>
      <point x="490.0" y="386.0" type="qcurve" smooth="yes"/>
      <point x="490.0" y="1055.0" type="line" smooth="yes"/>
      <point x="490.0" y="1068.0"/>
      <point x="495.0" y="1078.0"/>
      <point x="500.0" y="1078.0" type="qcurve" smooth="yes"/>
      <point x="506.0" y="1078.0"/>
      <point x="511.0" y="1068.0"/>
      <point x="511.0" y="1055.0" type="qcurve" smooth="yes"/>
      <point x="511.0" y="386.0" type="line" smooth="yes"/>
      <point x="511.0" y="371.0"/>
      <point x="506.0" y="359.0"/>
      <point x="500.0" y="359.0" type="qcurve" smooth="yes"/>
      <point x="494.0" y="359.0"/>
      <point x="490.0" y="371.0"/>
    </contour>
  </outline>
</glyph>
<glyph name="one" format="2">
  <advance width="1008"/>
  <unicode hex="0031"/>
  <outline>
    <contour>
      <point x="345.0" y="0.0" type="line"/>
      <point x="918.0" y="0.0" type="line"/>
      <point x="918.0" y="1447.0" type="line"/>
      <point x="394.0" y="1447.0" type="line"/>
      <point x="25.0" y="1292.0" type="line"/>
      <point x="25.0" y="819.0" type="line"/>
      <point x="345.0" y="962.0" type="line"/>
    </contour>
  </outline>
</glyph>
<glyph name="six" format="2">
  <advance width="1008"/>
  <unicode hex="0036"/>
  <outline>
    <contour>
      <point x="10.0" y="549.0" type="line" smooth="yes"/>
      <point x="10.0" y="242.0"/>
      <point x="273.0" y="-20.0"/>
      <point x="504.0" y="-20.0" type="qcurve" smooth="yes"/>
      <point x="730.0" y="-20.0"/>
      <point x="1005.0" y="266.0"/>
      <point x="1005.0" y="510.0" type="qcurve" smooth="yes"/>
      <point x="1005.0" y="754.0"/>
      <point x="833.0" y="953.0"/>
      <point x="687.0" y="953.0" type="qcurve" smooth="yes"/>
      <point x="541.0" y="953.0"/>
      <point x="433.0" y="787.0"/>
      <point x="433.0" y="595.0" type="qcurve"/>
      <point x="484.0" y="595.0" type="line"/>
      <point x="484.0" y="645.0"/>
      <point x="489.0" y="670.0"/>
      <point x="498.0" y="670.0" type="qcurve" smooth="yes"/>
      <point x="505.0" y="670.0"/>
      <point x="510.0" y="651.0"/>
      <point x="510.0" y="538.0" type="qcurve" smooth="yes"/>
      <point x="510.0" y="373.0"/>
      <point x="503.0" y="358.0"/>
      <point x="497.0" y="358.0" type="qcurve" smooth="yes"/>
      <point x="492.0" y="358.0"/>
      <point x="484.0" y="362.0"/>
      <point x="484.0" y="386.0" type="qcurve" smooth="yes"/>
      <point x="484.0" y="548.0" type="line" smooth="yes"/>
      <point x="484.0" y="920.0"/>
      <point x="670.0" y="1056.0"/>
      <point x="855.0" y="1056.0" type="qcurve" smooth="yes"/>
      <point x="885.0" y="1056.0" type="line"/>
      <point x="885.0" y="1476.0" type="line"/>
      <point x="780.0" y="1476.0" type="line" smooth="yes"/>
      <point x="362.0" y="1476.0"/>
      <point x="10.0" y="1037.0"/>
      <point x="10.0" y="644.0" type="qcurve" smooth="yes"/>
    </contour>
  </outline>
</glyph>
<glyph name="equal" format="2">
  <advance width="763"/>
  <unicode hex="003D"/>
  <outline>
    <contour>
      <point x="4.0" y="307.0" type="line"/>
      <point x="758.0" y="307.0" type="line"/>
      <point x="758.0" y="643.0" type="line"/>
      <point x="4.0" y="643.0" type="line"/>
    </contour>
    <contour>
      <point x="4.0" y="712.0" type="line"/>
      <point x="758.0" y="712.0" type="line"/>
      <point x="758.0" y="1048.0" type="line"/>
      <point x="4.0" y="1048.0" type="line"/>
    </contour>
  </outline>
</glyph>
<glyph name="question" format="2">
  <advance width="883"/>
  <unicode hex="003F"/>
  <outline>
    <contour>
      <point x="213.0" y="175.0" type="qcurve" smooth="yes"/>
      <point x="213.0" y="96.0"/>
      <point x="327.0" y="-18.0"/>
      <point x="430.0" y="-18.0" type="qcurve" smooth="yes"/>
      <point x="535.0" y="-18.0"/>
      <point x="646.0" y="95.0"/>
      <point x="646.0" y="175.0" type="qcurve" smooth="yes"/>
      <point x="646.0" y="255.0"/>
      <point x="534.0" y="368.0"/>
      <point x="430.0" y="368.0" type="qcurve" smooth="yes"/>
      <point x="324.0" y="368.0"/>
      <point x="213.0" y="255.0"/>
    </contour>
    <contour>
      <point x="13.0" y="987.0" type="line"/>
      <point x="344.0" y="987.0" type="line"/>
      <point x="344.0" y="1100.0" type="line" smooth="yes"/>
      <point x="344.0" y="1152.0"/>
      <point x="377.0" y="1198.0"/>
      <point x="416.0" y="1198.0" type="qcurve" smooth="yes"/>
      <point x="450.0" y="1198.0"/>
      <point x="484.0" y="1152.0"/>
      <point x="484.0" y="1092.0" type="qcurve" smooth="yes"/>
      <point x="484.0" y="1035.0"/>
      <point x="454.0" y="969.0"/>
      <point x="395.0" y="896.0" type="qcurve" smooth="yes"/>
      <point x="309.0" y="791.0"/>
      <point x="243.0" y="670.0"/>
      <point x="242.0" y="572.0" type="qcurve" smooth="yes"/>
      <point x="242.0" y="435.0" type="line"/>
      <point x="611.0" y="435.0" type="line"/>
      <point x="611.0" y="559.0" type="line" smooth="yes"/>
      <point x="611.0" y="615.0"/>
      <point x="666.0" y="699.0"/>
      <point x="733.0" y="791.0" type="qcurve" smooth="yes"/>
      <point x="798.0" y="875.0"/>
      <point x="887.0" y="1036.0"/>
      <point x="887.0" y="1158.0" type="qcurve" smooth="yes"/>
      <point x="887.0" y="1326.0"/>
      <point x="658.0" y="1472.0"/>
      <point x="434.0" y="1472.0" type="qcurve" smooth="yes"/>
      <point x="230.0" y="1472.0"/>
      <point x="13.0" y="1296.0"/>
      <point x="13.0" y="1142.0" type="qcurve" smooth="yes"/>
    </contour>
  </outline>
</glyph>
<glyph name="at" format="2">
  <advance width="1501"/>
  <unicode hex="0040"/>
  <outline>
    <contour>
      <point x="384.0" y="401.0" type="qcurve" smooth="yes"/>
      <point x="384.0" y="217.0"/>
      <point x="527.0" y="49.0"/>
      <point x="642.0" y="49.0" type="qcurve" smooth="yes"/>
      <point x="700.0" y="49.0"/>
      <point x="803.0" y="127.0"/>
      <point x="839.0" y="201.0" type="qcurve"/>
      <point x="866.0" y="126.0"/>
      <point x="990.0" y="49.0"/>
      <point x="1097.0" y="49.0" type="qcurve" smooth="yes"/>
      <point x="1277.0" y="49.0"/>
      <point x="1486.0" y="371.0"/>
      <point x="1486.0" y="641.0" type="qcurve" smooth="yes"/>
      <point x="1486.0" y="984.0"/>
      <point x="1101.0" y="1396.0"/>
      <point x="796.0" y="1396.0" type="qcurve" smooth="yes"/>
      <point x="480.0" y="1396.0"/>
      <point x="20.0" y="856.0"/>
      <point x="20.0" y="464.0" type="qcurve" smooth="yes"/>
      <point x="20.0" y="53.0"/>
      <point x="408.0" y="-356.0"/>
      <point x="687.0" y="-356.0" type="qcurve" smooth="yes"/>
      <point x="773.0" y="-356.0"/>
      <point x="890.0" y="-318.0"/>
      <point x="932.0" y="-278.0" type="qcurve"/>
      <point x="932.0" y="-9.0" type="line"/>
      <point x="893.0" y="-43.0"/>
      <point x="773.0" y="-88.0"/>
      <point x="687.0" y="-88.0" type="qcurve" smooth="yes"/>
      <point x="516.0" y="-88.0"/>
      <point x="347.0" y="161.0"/>
      <point x="347.0" y="433.0" type="qcurve" smooth="yes"/>
      <point x="347.0" y="742.0"/>
      <point x="603.0" y="1139.0"/>
      <point x="796.0" y="1139.0" type="qcurve" smooth="yes"/>
      <point x="992.0" y="1139.0"/>
      <point x="1209.0" y="857.0"/>
      <point x="1209.0" y="611.0" type="qcurve" smooth="yes"/>
      <point x="1209.0" y="441.0"/>
      <point x="1163.0" y="256.0"/>
      <point x="1127.0" y="257.0" type="qcurve" smooth="yes"/>
      <point x="1113.0" y="258.0"/>
      <point x="1114.0" y="304.0"/>
      <point x="1119.0" y="362.0" type="qcurve" smooth="yes"/>
      <point x="1192.0" y="917.0" type="line"/>
      <point x="984.0" y="917.0" type="line"/>
      <point x="951.0" y="967.0"/>
      <point x="852.0" y="1002.0"/>
      <point x="790.0" y="1002.0" type="qcurve" smooth="yes"/>
      <point x="632.0" y="1002.0"/>
      <point x="384.0" y="683.0"/>
    </contour>
    <contour>
      <point x="718.0" y="424.0" type="qcurve" smooth="yes"/>
      <point x="718.0" y="578.0"/>
      <point x="778.0" y="782.0"/>
      <point x="810.0" y="782.0" type="qcurve" smooth="yes"/>
      <point x="830.0" y="782.0"/>
      <point x="850.0" y="768.0"/>
      <point x="856.0" y="759.0" type="qcurve"/>
      <point x="817.0" y="412.0" type="line" smooth="yes"/>
      <point x="811.0" y="349.0"/>
      <point x="778.0" y="301.0"/>
      <point x="759.0" y="301.0" type="qcurve" smooth="yes"/>
      <point x="738.0" y="301.0"/>
      <point x="718.0" y="340.0"/>
    </contour>
  </outline>
</glyph>
<glyph name="B" format="2">
  <advance width="1020"/>
  <unicode hex="0042"/>
  <outline>
    <contour>
      <point x="10.0" y="0.0" type="line"/>
      <point x="555.0" y="0.0" type="line" smooth="yes"/>
      <point x="747.0" y="0.0"/>
      <point x="1016.0" y="222.0"/>
      <point x="1016.0" y="428.0" type="qcurve" smooth="yes"/>
      <point x="1016.0" y="594.0"/>
      <point x="865.0" y="747.0"/>
      <point x="794.0" y="768.0" type="qcurve"/>
      <point x="794.0" y="769.0" type="line"/>
      <point x="850.0" y="798.0"/>
      <point x="956.0" y="941.0"/>
      <point x="955.0" y="1086.0" type="qcurve" smooth="yes"/>
      <point x="954.0" y="1265.0"/>
      <point x="734.0" y="1456.0"/>
      <point x="555.0" y="1456.0" type="qcurve" smooth="yes"/>
      <point x="10.0" y="1456.0" type="line"/>
    </contour>
    <contour>
      <point x="478.0" y="376.0" type="line"/>
      <point x="478.0" y="585.0" type="line"/>
      <point x="495.0" y="585.0" type="line" smooth="yes"/>
      <point x="505.0" y="585.0"/>
      <point x="518.0" y="568.0"/>
      <point x="518.0" y="482.0" type="qcurve" smooth="yes"/>
      <point x="518.0" y="395.0"/>
      <point x="507.0" y="376.0"/>
      <point x="498.0" y="376.0" type="qcurve" smooth="yes"/>
    </contour>
    <contour>
      <point x="478.0" y="857.0" type="line"/>
      <point x="478.0" y="1058.0" type="line"/>
      <point x="492.0" y="1058.0" type="line" smooth="yes"/>
      <point x="506.0" y="1058.0"/>
      <point x="518.0" y="1039.0"/>
      <point x="518.0" y="952.0" type="qcurve" smooth="yes"/>
      <point x="518.0" y="878.0"/>
      <point x="506.0" y="857.0"/>
      <point x="492.0" y="857.0" type="qcurve" smooth="yes"/>
    </contour>
  </outline>
</glyph>
<glyph name="C" format="2">
  <advance width="1044"/>
  <unicode hex="0043"/>
  <anchor x="537.0" y="0" name="bottom"/>
  <outline>
    <contour>
      <point x="6.0" y="605.0" type="line" smooth="yes"/>
      <point x="6.0" y="273.0"/>
      <point x="291.0" y="-19.0"/>
      <point x="537.0" y="-19.0" type="qcurve" smooth="yes"/>
      <point x="780.0" y="-19.0"/>
      <point x="1038.0" y="267.0"/>
      <point x="1038.0" y="538.0" type="qcurve" smooth="yes"/>
      <point x="1038.0" y="692.0" type="line"/>
      <point x="557.0" y="692.0" type="line"/>
      <point x="557.0" y="406.0" type="line" smooth="yes"/>
      <point x="557.0" y="396.0"/>
      <point x="555.0" y="377.0"/>
      <point x="543.0" y="377.0" type="qcurve" smooth="yes"/>
      <point x="533.0" y="377.0"/>
      <point x="529.0" y="393.0"/>
      <point x="529.0" y="413.0" type="qcurve" smooth="yes"/>
      <point x="529.0" y="1038.0" type="line" smooth="yes"/>
      <point x="529.0" y="1052.0"/>
      <point x="536.0" y="1067.0"/>
      <point x="543.0" y="1067.0" type="qcurve" smooth="yes"/>
      <point x="550.0" y="1067.0"/>
      <point x="557.0" y="1056.0"/>
      <point x="557.0" y="1038.0" type="qcurve" smooth="yes"/>
      <point x="557.0" y="744.0" type="line"/>
      <point x="1037.0" y="744.0" type="line"/>
      <point x="1037.0" y="967.0" type="line" smooth="yes"/>
      <point x="1037.0" y="1209.0"/>
      <point x="790.0" y="1476.0"/>
      <point x="537.0" y="1476.0" type="qcurve" smooth="yes"/>
      <point x="274.0" y="1476.0"/>
      <point x="6.0" y="1158.0"/>
      <point x="6.0" y="843.0" type="qcurve" smooth="yes"/>
    </contour>
  </outline>
</glyph>
<glyph name="H" format="2">
  <advance width="1030"/>
  <unicode hex="0048"/>
  <outline>
    <contour>
      <point x="10.0" y="0.0" type="line"/>
      <point x="500.0" y="0.0" type="line"/>
      <point x="500.0" y="504.0" type="line"/>
      <point x="530.0" y="504.0" type="line"/>
      <point x="530.0" y="0.0" type="line"/>
      <point x="1020.0" y="0.0" type="line"/>
      <point x="1020.0" y="1456.0" type="line"/>
      <point x="530.0" y="1456.0" type="line"/>
      <point x="530.0" y="1001.0" type="line"/>
      <point x="500.0" y="1001.0" type="line"/>
      <point x="500.0" y="1456.0" type="line"/>
      <point x="10.0" y="1456.0" type="line"/>
    </contour>
  </outline>
</glyph>
<glyph name="K" format="2">
  <advance width="1096"/>
  <unicode hex="004B"/>
  <outline>
    <contour>
      <point x="10.0" y="0.0" type="line"/>
      <point x="500.0" y="0.0" type="line"/>
      <point x="500.0" y="234.0" type="line"/>
      <point x="1091.0" y="1456.0" type="line"/>
      <point x="602.0" y="1456.0" type="line"/>
      <point x="500.0" y="1165.0" type="line"/>
      <point x="500.0" y="1456.0" type="line"/>
      <point x="10.0" y="1456.0" type="line"/>
    </contour>
    <contour>
      <point x="570.0" y="0.0" type="line"/>
      <point x="1106.0" y="0.0" type="line"/>
      <point x="834.0" y="1014.0" type="line"/>
      <point x="513.0" y="337.0" type="line"/>
    </contour>
  </outline>
</glyph>
<glyph name="M" format="2">
  <advance width="1560"/>
  <unicode hex="004D"/>
  <outline>
    <contour>
      <point x="6.0" y="0.0" type="line"/>
      <point x="511.0" y="0.0" type="line"/>
      <point x="527.0" y="570.0" type="line" smooth="yes"/>
      <point x="527.0" y="579.0"/>
      <point x="538.0" y="810.0"/>
      <point x="538.0" y="814.0" type="qcurve"/>
      <point x="539.0" y="814.0" type="line"/>
      <point x="539.0" y="810.0"/>
      <point x="547.0" y="578.0"/>
      <point x="547.0" y="570.0" type="qcurve" smooth="yes"/>
      <point x="562.0" y="0.0" type="line"/>
      <point x="1012.0" y="0.0" type="line"/>
      <point x="1030.0" y="562.0" type="line" smooth="yes"/>
      <point x="1030.0" y="569.0"/>
      <point x="1040.0" y="804.0"/>
      <point x="1041.0" y="820.0" type="qcurve"/>
      <point x="1042.0" y="820.0" type="line"/>
      <point x="1042.0" y="804.0"/>
      <point x="1049.0" y="568.0"/>
      <point x="1049.0" y="561.0" type="qcurve" smooth="yes"/>
      <point x="1063.0" y="0.0" type="line"/>
      <point x="1554.0" y="0.0" type="line"/>
      <point x="1454.0" y="1456.0" type="line"/>
      <point x="838.0" y="1456.0" type="line"/>
      <point x="789.0" y="940.0" type="line" smooth="yes"/>
      <point x="788.0" y="933.0"/>
      <point x="783.0" y="888.0"/>
      <point x="783.0" y="886.0" type="qcurve"/>
      <point x="782.0" y="886.0" type="line"/>
      <point x="782.0" y="888.0"/>
      <point x="776.0" y="933.0"/>
      <point x="775.0" y="940.0" type="qcurve" smooth="yes"/>
      <point x="717.0" y="1456.0" type="line"/>
      <point x="106.0" y="1456.0" type="line"/>
    </contour>
  </outline>
</glyph>
<glyph name="N" format="2">
  <advance width="1007"/>
  <unicode hex="004E"/>
  <anchor x="501.0" y="1432.0" name="top"/>
  <outline>
    <contour>
      <point x="10.0" y="0.0" type="line"/>
      <point x="492.0" y="0.0" type="line"/>
      <point x="492.0" y="294.0" type="line" smooth="yes"/>
      <point x="492.0" y="307.0"/>
      <point x="492.0" y="417.0"/>
      <point x="492.0" y="439.0" type="qcurve"/>
      <point x="493.0" y="439.0" type="line"/>
      <point x="498.0" y="415.0"/>
      <point x="527.0" y="307.0"/>
      <point x="530.0" y="294.0" type="qcurve" smooth="yes"/>
      <point x="601.0" y="0.0" type="line"/>
      <point x="997.0" y="0.0" type="line"/>
      <point x="997.0" y="1456.0" type="line"/>
      <point x="514.0" y="1456.0" type="line"/>
      <point x="514.0" y="1154.0" type="line" smooth="yes"/>
      <point x="514.0" y="1137.0"/>
      <point x="513.0" y="1037.0"/>
      <point x="514.0" y="1011.0" type="qcurve"/>
      <point x="513.0" y="1011.0" type="line"/>
      <point x="508.0" y="1039.0"/>
      <point x="486.0" y="1137.0"/>
      <point x="483.0" y="1154.0" type="qcurve" smooth="yes"/>
      <point x="424.0" y="1456.0" type="line"/>
      <point x="10.0" y="1456.0" type="line"/>
    </contour>
  </outline>
</glyph>
<glyph name="W" format="2">
  <advance width="1648"/>
  <unicode hex="0057"/>
  <outline>
    <contour>
      <point x="201.0" y="0.0" type="line"/>
      <point x="726.0" y="0.0" type="line"/>
      <point x="815.0" y="516.0" type="line" smooth="yes"/>
      <point x="816.0" y="523.0"/>
      <point x="821.0" y="568.0"/>
      <point x="821.0" y="570.0" type="qcurve"/>
      <point x="822.0" y="570.0" type="line"/>
      <point x="822.0" y="568.0"/>
      <point x="828.0" y="522.0"/>
      <point x="829.0" y="516.0" type="qcurve" smooth="yes"/>
      <point x="937.0" y="0.0" type="line"/>
      <point x="1458.0" y="0.0" type="line"/>
      <point x="1648.0" y="1456.0" type="line"/>
      <point x="1130.0" y="1456.0" type="line"/>
      <point x="1080.0" y="846.0" type="line" smooth="yes"/>
      <point x="1079.0" y="837.0"/>
      <point x="1078.0" y="772.0"/>
      <point x="1078.0" y="768.0" type="qcurve"/>
      <point x="1077.0" y="768.0" type="line"/>
      <point x="1077.0" y="772.0"/>
      <point x="1071.0" y="838.0"/>
      <point x="1071.0" y="846.0" type="qcurve" smooth="yes"/>
      <point x="1038.0" y="1456.0" type="line"/>
      <point x="612.0" y="1456.0" type="line"/>
      <point x="571.0" y="844.0" type="line" smooth="yes"/>
      <point x="570.0" y="826.0"/>
      <point x="571.0" y="784.0"/>
      <point x="569.0" y="768.0" type="qcurve"/>
      <point x="567.0" y="768.0" type="line"/>
      <point x="567.0" y="784.0"/>
      <point x="563.0" y="827.0"/>
      <point x="562.0" y="845.0" type="qcurve" smooth="yes"/>
      <point x="520.0" y="1456.0" type="line"/>
      <point x="-1.0" y="1456.0" type="line"/>
    </contour>
  </outline>
</glyph>
<glyph name="X" format="2">
  <advance width="1064"/>
  <unicode hex="0058"/>
  <outline>
    <contour>
      <point x="-30.0" y="0.0" type="line"/>
      <point x="446.0" y="0.0" type="line"/>
      <point x="612.0" y="513.0" type="line"/>
      <point x="703.0" y="513.0" type="line"/>
      <point x="1094.0" y="1456.0" type="line"/>
      <point x="647.0" y="1456.0" type="line"/>
      <point x="425.0" y="873.0" type="line"/>
      <point x="335.0" y="875.0" type="line"/>
    </contour>
    <contour>
      <point x="-8.0" y="1456.0" type="line"/>
      <point x="314.0" y="612.0" type="line"/>
      <point x="404.0" y="534.0" type="line"/>
      <point x="569.0" y="-1.0" type="line"/>
      <point x="1071.0" y="-1.0" type="line"/>
      <point x="791.0" y="836.0" type="line"/>
      <point x="701.0" y="915.0" type="line"/>
      <point x="494.0" y="1456.0" type="line"/>
    </contour>
  </outline>
</glyph>
<glyph name="grave" format="2">
  <advance width="642"/>
  <unicode hex="0060"/>
  <anchor x="312.0" y="914.0" name="_top"/>
  <outline>
    <contour>
      <point x="189.0" y="1033.0" type="line"/>
      <point x="476.0" y="1105.0" type="line"/>
      <point x="301.0" y="1422.0" type="line"/>
      <point x="-27.0" y="1350.0" type="line"/>
    </contour>
  </outline>
</glyph>
<glyph name="d" format="2">
  <advance width="1012"/>
  <unicode hex="0064"/>
  <outline>
    <contour>
      <point x="4.0" y="445.0" type="line" smooth="yes"/>
      <point x="4.0" y="211.0"/>
      <point x="171.0" y="-15.0"/>
      <point x="314.0" y="-15.0" type="qcurve" smooth="yes"/>
      <point x="383.0" y="-15.0"/>
      <point x="488.0" y="34.0"/>
      <point x="516.0" y="60.0" type="qcurve"/>
      <point x="516.0" y="60.0" type="line"/>
      <point x="516.0" y="0.0" type="line"/>
      <point x="1006.0" y="0.0" type="line"/>
      <point x="1006.0" y="1456.0" type="line"/>
      <point x="510.0" y="1456.0" type="line"/>
      <point x="510.0" y="871.0" type="line"/>
      <point x="493.0" y="892.0"/>
      <point x="400.0" y="940.0"/>
      <point x="312.0" y="940.0" type="qcurve" smooth="yes"/>
      <point x="180.0" y="940.0"/>
      <point x="4.0" y="729.0"/>
      <point x="4.0" y="509.0" type="qcurve" smooth="yes"/>
    </contour>
    <contour>
      <point x="489.0" y="363.0" type="qcurve" smooth="yes"/>
      <point x="489.0" y="549.0" type="line" smooth="yes"/>
      <point x="489.0" y="559.0"/>
      <point x="496.0" y="566.0"/>
      <point x="502.0" y="566.0" type="qcurve" smooth="yes"/>
      <point x="510.0" y="566.0"/>
      <point x="516.0" y="557.0"/>
      <point x="516.0" y="549.0" type="qcurve"/>
      <point x="516.0" y="364.0" type="line"/>
      <point x="516.0" y="357.0"/>
      <point x="510.0" y="351.0"/>
      <point x="502.0" y="351.0" type="qcurve" smooth="yes"/>
      <point x="495.0" y="351.0"/>
      <point x="489.0" y="356.0"/>
    </contour>
  </outline>
</glyph>
<glyph name="f" format="2">
  <advance width="592"/>
  <unicode hex="0066"/>
  <outline>
    <contour>
      <point x="41.0" y="0.0" type="line"/>
      <point x="529.0" y="0.0" type="line"/>
      <point x="529.0" y="830.0" type="line"/>
      <point x="519.0" y="839.0" type="line"/>
      <point x="519.0" y="1043.0" type="line" smooth="yes"/>
      <point x="519.0" y="1053.0"/>
      <point x="539.0" y="1064.0"/>
      <point x="552.0" y="1064.0" type="qcurve" smooth="yes"/>
      <point x="563.0" y="1064.0"/>
      <point x="580.0" y="1063.0"/>
      <point x="590.0" y="1061.0" type="qcurve"/>
      <point x="635.0" y="1456.0" type="line"/>
      <point x="612.0" y="1462.0"/>
      <point x="504.0" y="1478.0"/>
      <point x="401.0" y="1478.0" type="qcurve" smooth="yes"/>
      <point x="231.0" y="1478.0"/>
      <point x="41.0" y="1281.0"/>
      <point x="41.0" y="1097.0" type="qcurve" smooth="yes"/>
    </contour>
    <contour>
      <point x="4.0" y="520.0" type="line"/>
      <point x="584.0" y="520.0" type="line"/>
      <point x="584.0" y="914.0" type="line"/>
      <point x="108.0" y="914.0" type="line"/>
      <point x="90.0" y="914.0" type="line"/>
      <point x="4.0" y="914.0" type="line"/>
    </contour>
  </outline>
</glyph>
<glyph name="l" format="2">
  <advance width="510"/>
  <unicode hex="006C"/>
  <outline>
    <contour>
      <point x="8.0" y="0.0" type="line"/>
      <point x="502.0" y="0.0" type="line"/>
      <point x="502.0" y="1456.0" type="line"/>
      <point x="8.0" y="1456.0" type="line"/>
    </contour>
  </outline>
</glyph>
<glyph name="r" format="2">
  <advance width="657"/>
  <unicode hex="0072"/>
  <outline>
    <contour>
      <point x="8.0" y="0.0" type="line"/>
      <point x="496.0" y="0.0" type="line"/>
      <point x="494.0" y="457.0" type="line"/>
      <point x="511.0" y="495.0"/>
      <point x="574.0" y="531.0"/>
      <point x="599.0" y="531.0" type="qcurve" smooth="yes"/>
      <point x="617.0" y="531.0"/>
      <point x="647.0" y="522.0"/>
      <point x="657.0" y="514.0" type="qcurve"/>
      <point x="657.0" y="925.0" type="line"/>
      <point x="652.0" y="929.0"/>
      <point x="624.0" y="934.0"/>
      <point x="601.0" y="934.0" type="qcurve" smooth="yes"/>
      <point x="560.0" y="934.0"/>
      <point x="497.0" y="870.9999999999999"/>
      <point x="485.0" y="834.0" type="qcurve"/>
      <point x="484.0" y="834.0" type="line"/>
      <point x="484.0" y="914.0" type="line"/>
      <point x="8.0" y="914.0" type="line"/>
    </contour>
  </outline>
</glyph>
<glyph name="s" format="2">
  <advance width="885"/>
  <unicode hex="0073"/>
  <outline>
    <contour>
      <point x="1.0" y="296.0" type="line"/>
      <point x="1.0" y="279.0" type="line" smooth="yes"/>
      <point x="1.0" y="138.0"/>
      <point x="217.0" y="-21.0"/>
      <point x="436.0" y="-21.0" type="qcurve" smooth="yes"/>
      <point x="661.0" y="-21.0"/>
      <point x="878.0" y="166.0"/>
      <point x="878.0" y="301.0" type="qcurve" smooth="yes"/>
      <point x="878.0" y="433.0"/>
      <point x="734.0" y="550.0"/>
      <point x="596.0" y="579.0" type="qcurve" smooth="yes"/>
      <point x="440.0" y="612.0"/>
      <point x="404.0" y="625.0"/>
      <point x="404.0" y="636.0" type="qcurve" smooth="yes"/>
      <point x="404.0" y="644.0"/>
      <point x="415.0" y="652.0"/>
      <point x="424.0" y="652.0" type="qcurve" smooth="yes"/>
      <point x="433.0" y="652.0"/>
      <point x="445.0" y="642.0"/>
      <point x="445.0" y="632.0" type="qcurve" smooth="yes"/>
      <point x="445.0" y="613.0" type="line"/>
      <point x="823.0" y="613.0" type="line"/>
      <point x="823.0" y="678.0" type="line" smooth="yes"/>
      <point x="823.0" y="786.0"/>
      <point x="648.0" y="947.0"/>
      <point x="423.0" y="947.0" type="qcurve" smooth="yes"/>
      <point x="213.0" y="947.0"/>
      <point x="12.0" y="776.0"/>
      <point x="12.0" y="637.0" type="qcurve" smooth="yes"/>
      <point x="12.0" y="519.0"/>
      <point x="128.0" y="371.0"/>
      <point x="252.0" y="338.0" type="qcurve" smooth="yes"/>
      <point x="380.0" y="304.0"/>
      <point x="427.0" y="288.0"/>
      <point x="427.0" y="267.0" type="qcurve" smooth="yes"/>
      <point x="427.0" y="256.0"/>
      <point x="414.0" y="247.0"/>
      <point x="405.0" y="247.0" type="qcurve" smooth="yes"/>
      <point x="395.0" y="247.0"/>
      <point x="382.0" y="256.0"/>
      <point x="382.0" y="268.0" type="qcurve" smooth="yes"/>
      <point x="382.0" y="296.0" type="line"/>
    </contour>
  </outline>
</glyph>
<glyph name="t" format="2">
  <advance width="585"/>
  <unicode hex="0074"/>
  <outline>
    <contour>
      <point x="4.0" y="526.0" type="line"/>
      <point x="565.0" y="526.0" type="line"/>
      <point x="565.0" y="914.0" type="line"/>
      <point x="4.0" y="914.0" type="line"/>
    </contour>
    <contour>
      <point x="28.0" y="291.0" type="line" smooth="yes"/>
      <point x="28.0" y="141.0"/>
      <point x="196.0" y="-13.0"/>
      <point x="358.0" y="-13.0" type="qcurve" smooth="yes"/>
      <point x="422.0" y="-13.0"/>
      <point x="546.0" y="11.0"/>
      <point x="581.0" y="24.0" type="qcurve"/>
      <point x="581.0" y="372.0" type="line"/>
      <point x="568.0" y="369.0"/>
      <point x="551.0" y="365.0"/>
      <point x="533.0" y="365.0" type="qcurve" smooth="yes"/>
      <point x="517.0" y="365.0"/>
      <point x="496.0" y="397.0"/>
      <point x="496.0" y="432.0" type="qcurve" smooth="yes"/>
      <point x="496.0" y="1072.0" type="line"/>
      <point x="48.0" y="1072.0" type="line"/>
      <point x="48.0" y="883.0" type="line"/>
      <point x="28.0" y="872.0" type="line"/>
    </contour>
  </outline>
</glyph>
<glyph name="w" format="2">
  <advance width="1273"/>
  <unicode hex="0077"/>
  <outline>
    <contour>
      <point x="-10.0" y="914.0" type="line"/>
      <point x="156.0" y="0.0" type="line"/>
      <point x="589.0" y="0.0" type="line"/>
      <point x="629.0" y="281.0" type="line" smooth="yes"/>
      <point x="630.0" y="289.0"/>
      <point x="632.0" y="310.0"/>
      <point x="632.0" y="313.0" type="qcurve"/>
      <point x="632.0" y="313.0" type="line"/>
      <point x="632.0" y="310.0"/>
      <point x="634.0" y="289.0"/>
      <point x="635.0" y="281.0" type="qcurve" smooth="yes"/>
      <point x="686.0" y="0.0" type="line"/>
      <point x="1117.0" y="0.0" type="line"/>
      <point x="1283.0" y="914.0" type="line"/>
      <point x="900.0" y="914.0" type="line"/>
      <point x="866.0" y="658.0" type="line" smooth="yes"/>
      <point x="864.0" y="643.0"/>
      <point x="857.0" y="604.0"/>
      <point x="857.0" y="603.0" type="qcurve"/>
      <point x="857.0" y="603.0" type="line"/>
      <point x="857.0" y="604.0"/>
      <point x="852.0" y="643.0"/>
      <point x="850.0" y="658.0" type="qcurve" smooth="yes"/>
      <point x="819.0" y="914.0" type="line"/>
      <point x="479.0" y="914.0" type="line"/>
      <point x="448.0" y="658.0" type="line" smooth="yes"/>
      <point x="446.0" y="643.0"/>
      <point x="441.0" y="604.0"/>
      <point x="441.0" y="603.0" type="qcurve"/>
      <point x="441.0" y="603.0" type="line"/>
      <point x="441.0" y="604.0"/>
      <point x="435.0" y="643.0"/>
      <point x="432.0" y="658.0" type="qcurve" smooth="yes"/>
      <point x="388.0" y="914.0" type="line"/>
    </contour>
  </outline>
</glyph>
<glyph name="x" format="2">
  <advance width="1039"/>
  <unicode hex="0078"/>
  <outline>
    <contour>
      <point x="-10.0" y="0.0" type="line"/>
      <point x="433.0" y="0.0" type="line"/>
      <point x="583.0" y="271.0" type="line"/>
      <point x="675.0" y="364.0" type="line"/>
      <point x="1040.0" y="914.0" type="line"/>
      <point x="602.0" y="914.0" type="line"/>
      <point x="442.0" y="622.0" type="line"/>
      <point x="380.0" y="581.0" type="line"/>
    </contour>
    <contour>
      <point x="10.0" y="914.0" type="line"/>
      <point x="319.0" y="390.0" type="line"/>
      <point x="363.0" y="347.0" type="line"/>
      <point x="531.0" y="0.0" type="line"/>
      <point x="1049.0" y="0.0" type="line"/>
      <point x="750.0" y="526.0" type="line"/>
      <point x="686.0" y="568.0" type="line"/>
      <point x="509.0" y="914.0" type="line"/>
    </contour>
  </outline>
</glyph>
<glyph name="braceright" format="2">
  <advance width="687"/>
  <unicode hex="007D"/>
  <outline>
    <contour>
      <point x="29.0" y="-313.0" type="line"/>
      <point x="390.0" y="-319.0"/>
      <point x="584.0" y="-82.0"/>
      <point x="539.0" y="107.0" type="qcurve" smooth="yes"/>
      <point x="495.0" y="301.0" type="line" smooth="yes"/>
      <point x="478.0" y="381.0"/>
      <point x="559.0" y="428.0"/>
      <point x="653.0" y="428.0" type="qcurve"/>
      <point x="653.0" y="717.0" type="line"/>
      <point x="559.0" y="717.0"/>
      <point x="478.0" y="764.0"/>
      <point x="495.0" y="845.0" type="qcurve" smooth="yes"/>
      <point x="539.0" y="1038.0" type="line" smooth="yes"/>
      <point x="586.0" y="1233.0"/>
      <point x="390.0" y="1471.0"/>
      <point x="29.0" y="1459.0" type="qcurve"/>
      <point x="29.0" y="1192.0" type="line"/>
      <point x="132.0" y="1192.0"/>
      <point x="216.0" y="1092.0"/>
      <point x="195.0" y="994.0" type="qcurve" smooth="yes"/>
      <point x="151.0" y="813.0" type="line" smooth="yes"/>
      <point x="130.0" y="729.0"/>
      <point x="191.0" y="603.0"/>
      <point x="284.0" y="573.0" type="qcurve"/>
      <point x="191.0" y="543.0"/>
      <point x="130.0" y="417.0"/>
      <point x="151.0" y="333.0" type="qcurve" smooth="yes"/>
      <point x="195.0" y="151.0" type="line" smooth="yes"/>
      <point x="216.0" y="54.0"/>
      <point x="132.0" y="-46.0"/>
      <point x="29.0" y="-46.0" type="qcurve"/>
    </contour>
  </outline>
</glyph>
<glyph name="asciitilde" format="2">
  <advance width="792"/>
  <unicode hex="007E"/>
  <outline>
    <contour>
      <point x="5.0" y="341.0" type="line"/>
      <point x="31.0" y="378.0"/>
      <point x="108.0" y="436.0"/>
      <point x="177.0" y="436.0" type="qcurve" smooth="yes"/>
      <point x="214.0" y="436.0"/>
      <point x="311.0" y="413.0"/>
      <point x="373.0" y="390.0" type="qcurve" smooth="yes"/>
      <point x="453.0" y="359.0"/>
      <point x="578.0" y="331.0"/>
      <point x="624.0" y="331.0" type="qcurve" smooth="yes"/>
      <point x="686.0" y="331.0"/>
      <point x="764.0" y="374.0"/>
      <point x="787.0" y="405.0" type="qcurve"/>
      <point x="787.0" y="883.0" type="line"/>
      <point x="747.0" y="828.0"/>
      <point x="668.0" y="780.0"/>
      <point x="622.0" y="780.0" type="qcurve" smooth="yes"/>
      <point x="581.0" y="780.0"/>
      <point x="480.0" y="811.0"/>
      <point x="413.0" y="839.0" type="qcurve" smooth="yes"/>
      <point x="349.0" y="866.0"/>
      <point x="238.0" y="893.0"/>
      <point x="192.0" y="893.0" type="qcurve" smooth="yes"/>
      <point x="131.0" y="893.0"/>
      <point x="37.0" y="838.0"/>
      <point x="5.0" y="779.0" type="qcurve"/>
    </contour>
  </outline>
</glyph>
